<?xml version="1.0" encoding="UTF-8"?>
<svg id="Layer_1" data-name="Layer 1" xmlns="http://www.w3.org/2000/svg" viewBox="0 0 351.98 168.11">
  <defs>
    <style>
      .cls-1 {
        font-family: Assistant-Bold, Assistant;
        font-size: 22px;
        font-weight: 700;
      }

      .cls-1, .cls-2 {
        fill: #231f20;
      }

      .cls-2 {
        stroke-width: 0px;
      }
    </style>
  </defs>
  <g>
    <g>
      <path class="cls-2" d="M49.67,111.71c-9.13,0-17.44-2.09-24.92-6.27-7.48-4.18-13.48-10.4-17.99-18.65C2.25,78.54,0,68.42,0,56.43c0-8.91,1.32-16.86,3.96-23.84,2.64-6.99,6.3-12.9,10.97-17.74,4.67-4.84,10.07-8.52,16.17-11.06,6.11-2.53,12.51-3.79,19.22-3.79s13.12,1.4,18.56,4.21c1.91.98,3.7,2.02,5.38,3.11,4.7,3.05,5.54,9.6,1.97,13.91h0c-3.04,3.67-8.37,4.74-12.41,2.21-.75-.47-1.51-.91-2.28-1.32-3.08-1.65-6.66-2.47-10.73-2.47-5.17,0-9.85,1.46-14.02,4.37-4.18,2.92-7.48,7.04-9.9,12.38-2.42,5.34-3.63,11.74-3.63,19.22s1.1,14.27,3.3,19.72c2.2,5.45,5.36,9.6,9.49,12.46,4.13,2.86,8.94,4.29,14.44,4.29,4.51,0,8.55-.99,12.13-2.97,1.05-.58,2.07-1.21,3.05-1.88,4.01-2.74,9.43-2.03,12.57,1.67l.15.17c3.51,4.13,2.86,10.38-1.44,13.67-2.54,1.94-5.25,3.58-8.14,4.92-5.83,2.69-12.21,4.04-19.14,4.04Z"/>
      <path class="cls-2" d="M96.21,27.18c-3.63,0-6.66-1.13-9.08-3.38-2.42-2.25-3.63-5.14-3.63-8.66s1.21-6.41,3.63-8.66c2.42-2.25,5.45-3.38,9.08-3.38s6.79,1.13,9.16,3.38c2.36,2.26,3.55,5.14,3.55,8.66s-1.18,6.41-3.55,8.66c-2.37,2.26-5.42,3.38-9.16,3.38ZM105.37,29.58c-2.37,2.25-5.42,3.38-9.16,3.38s-6.66-1.13-9.08-3.38c-.85-.8-1.57-1.68-2.09-2.64h-.06v70.46c0,6.2,5.02,11.22,11.22,11.22h0c6.2,0,11.22-5.02,11.22-11.22V26.94c-.52.96-1.24,1.84-2.06,2.64Z"/>
      <path class="cls-2" d="M136.03,110.6c-4.95,0-9.24-1.07-12.87-3.22-3.63-2.14-6.43-5.06-8.41-8.74-1.98-3.68-2.97-7.84-2.97-12.46,0-8.58,3.68-15.29,11.06-20.13,6.48-4.26,16.41-7.32,29.78-9.2,3.53-.5,5.65-4.2,4.21-7.47h0c-.88-1.98-2.31-3.55-4.29-4.7-1.98-1.15-4.57-1.73-7.75-1.73-3.63,0-7.24.72-10.81,2.14-2.07.83-4.19,1.79-6.35,2.87-2.7,1.36-5.99.37-7.43-2.28l-2.8-5.14c-1.49-2.74-.46-6.18,2.31-7.62,1.79-.93,3.63-1.83,5.53-2.67,3.68-1.65,7.51-2.94,11.47-3.88,3.96-.93,8.09-1.4,12.38-1.4,6.93,0,12.76,1.38,17.49,4.13,4.73,2.75,8.3,6.79,10.73,12.13,2.42,5.34,3.63,12.07,3.63,20.21v41.62c0,3.08-2.49,5.57-5.57,5.57h-8.31c-2.67,0-4.97-1.9-5.47-4.52l-.78-4.06h-.5c-3.52,3.08-7.29,5.61-11.3,7.59-4.02,1.98-8.33,2.97-12.95,2.97ZM143.45,93.11c2.97,0,5.58-.68,7.84-2.06,1.62-.99,3.29-2.22,5-3.7,1.25-1.08,2.01-2.64,2.01-4.3v-6.61c0-3.51-3.23-6.17-6.67-5.47-3.22.66-5.95,1.41-8.18,2.25-3.63,1.38-6.22,3.03-7.76,4.95-1.54,1.93-2.31,3.99-2.31,6.19,0,2.97.93,5.17,2.81,6.6,1.87,1.43,4.29,2.14,7.26,2.14Z"/>
      <path class="cls-2" d="M186.76,103.79V7.92c0-3.28,2.66-5.94,5.94-5.94h23.92c11,0,20.52,1.93,28.55,5.78,8.03,3.85,14.22,9.71,18.56,17.57,4.34,7.87,6.52,17.9,6.52,30.11s-2.17,22.33-6.52,30.36c-4.35,8.03-10.43,14.03-18.24,17.99-7.81,3.96-17,5.94-27.56,5.94h-25.25c-3.28,0-5.94-2.66-5.94-5.94ZM209.37,85.47c0,3.28,2.66,5.94,5.94,5.94h0c6.38,0,11.96-1.21,16.75-3.63,4.79-2.42,8.47-6.24,11.06-11.47,2.58-5.22,3.88-12.18,3.88-20.87s-1.29-15.59-3.88-20.71c-2.59-5.11-6.27-8.8-11.06-11.06-4.79-2.25-10.37-3.38-16.75-3.38h0c-3.28,0-5.94,2.66-5.94,5.94v59.24Z"/>
      <path class="cls-2" d="M312.55,106.21c-6.93,0-13.39-1.68-19.39-5.03-6-3.35-10.84-8.22-14.52-14.6-3.69-6.38-5.53-14.08-5.53-23.1s1.84-16.72,5.53-23.1c3.68-6.38,8.52-11.27,14.52-14.69,5.99-3.41,12.46-5.11,19.39-5.11s13.23,1.71,19.22,5.11c5.99,3.41,10.86,8.31,14.6,14.69,3.74,6.38,5.61,14.08,5.61,23.1s-1.87,16.72-5.61,23.1c-3.74,6.38-8.61,11.25-14.6,14.6-6,3.35-12.41,5.03-19.22,5.03ZM312.55,87.89c3.52,0,6.49-.99,8.91-2.97,2.42-1.98,4.26-4.81,5.53-8.5,1.26-3.68,1.9-8,1.9-12.95s-.63-9.27-1.9-12.95c-1.26-3.68-3.11-6.54-5.53-8.58-2.42-2.03-5.39-3.05-8.91-3.05s-6.66,1.02-9.07,3.05c-2.42,2.04-4.24,4.9-5.45,8.58-1.21,3.69-1.82,8-1.82,12.95s.6,9.27,1.82,12.95c1.21,3.69,3.02,6.52,5.45,8.5,2.42,1.98,5.44,2.97,9.07,2.97Z"/>
    </g>
    <path class="cls-2" d="M247.91,119.07c-18.01,17.33-40.9,28.98-65.64,32.91-22.17,3.52-45.17.33-65.96-7.89-3.79-1.5-8.2,1.65-9.23,5.24-1.21,4.25,1.49,7.74,5.24,9.23,49.94,19.74,107.53,8.33,146.19-28.88,6.97-6.71-3.65-17.31-10.61-10.61h0Z"/>
  </g>
  <text class="cls-1" transform="translate(138.19 135.73)"><tspan x="0" y="0">See i Do</tspan></text>
</svg>